# xmcd CD database file
#
# Track frame offsets:
#	150
#	22766
#	43602
#
# Disc length: 884 seconds
#
# Revision: 0
# Processed by: cddbd v1.5PL3 Copyright (c) Steve Scherf et al.
# Submitted via: CDex 1.51
#
DISCID=16037203
DTITLE=SAYAKA - garden
DYEAR=2003
DGENRE=JPop
TTITLE0=garden
TTITLE1=Believe again
TTITLE2=Mermaid
EXTD=YEAR: 2003
EXTT0=
EXTT1=
EXTT2=
PLAYORDER=
